<svg xmlns="http://www.w3.org/2000/svg" width="24" height="24" viewBox="0 0 24 24" id="about">
  <g transform="translate(0 -290.65)">
    <path d="m 12,292.65039 c -5.511,0 -10,4.489 -10,10 0,5.511 4.489,10 10,10 5.511,0 10,-4.489 10,-10 0,-5.511 -4.489,-10 -10,-10 z m 0,2 c 4.43012,0 8,3.56988 8,8 0,4.43012 -3.56988,8 -8,8 -4.43012,0 -8,-3.56988 -8,-8 0,-4.43012 3.56988,-8 8,-8 z" color="#000" enable-background="accumulate" font-family="sans-serif" font-weight="400" overflow="visible" style="line-height:normal;font-variant-ligatures:normal;font-variant-position:normal;font-variant-caps:normal;font-variant-numeric:normal;font-variant-alternates:normal;font-variant-east-asian:normal;font-feature-settings:normal;font-variation-settings:normal;text-indent:0;text-align:start;text-decoration-line:none;text-decoration-style:solid;text-decoration-color:#000;text-transform:none;text-orientation:mixed;white-space:normal;shape-padding:0;shape-margin:0;inline-size:0;isolation:auto;mix-blend-mode:normal;solid-color:#000;solid-opacity:1"></path>
    <path d="m 12,299.65039 a 1,1 0 0 0 -1,1 v 7 a 1,1 0 0 0 1,1 1,1 0 0 0 1,-1 v -7 a 1,1 0 0 0 -1,-1 z" color="#000" enable-background="accumulate" font-family="sans-serif" font-weight="400" overflow="visible" style="line-height:normal;font-variant-ligatures:normal;font-variant-position:normal;font-variant-caps:normal;font-variant-numeric:normal;font-variant-alternates:normal;font-variant-east-asian:normal;font-feature-settings:normal;font-variation-settings:normal;text-indent:0;text-align:start;text-decoration-line:none;text-decoration-style:solid;text-decoration-color:#000;text-transform:none;text-orientation:mixed;white-space:normal;shape-padding:0;shape-margin:0;inline-size:0;isolation:auto;mix-blend-mode:normal;solid-color:#000;solid-opacity:1"></path>
    <path d="m 13,297.64999 a 1,1 0 0 1 -1,1 1,1 0 0 1 -1,-1 1,1 0 0 1 1,-1 1,1 0 0 1 1,1 z"></path>
  </g>
</svg>
