<svg id="Layer_1" enable-background="new 0 0 500 500" viewBox="0 0 500 500" xmlns="http://www.w3.org/2000/svg"><path clip-rule="evenodd" d="m303.048 45.211h13.965v92.833h-13.965zm-6.615 106.039h27.196c3.675 0 6.615-2.891 6.615-6.591v-106.039c0-3.724-2.94-6.615-6.615-6.615h-27.196c-3.675 0-6.615 2.891-6.615 6.615v106.039c0 3.7 2.94 6.591 6.615 6.591zm-51.207-79.53h13.965v66.324h-13.965zm-6.615 79.53h27.196c3.675 0 6.615-2.891 6.615-6.591v-79.529c0-3.724-2.94-6.615-6.615-6.615h-27.196c-3.43 0-6.615 2.891-6.615 6.615v79.53c0 3.699 3.185 6.59 6.615 6.59zm-50.962-53.02h13.965v39.814h-13.965zm-6.615 53.02h27.196c3.43 0 6.615-2.891 6.615-6.591v-53.019c0-3.7-3.185-6.615-6.615-6.615h-27.196c-3.675 0-6.615 2.915-6.615 6.615v53.02c0 3.699 2.94 6.59 6.615 6.59zm-38.466 135.734c-1.225-.343-2.205-1.495-4.165-4.312l-14.945-21.144c-2.559-3.549-7.84-3.808-10.536-.343-2.504 3.219-15.228 18.132-16.17 19.895l-18.131 35.232c-.49.784-.735 1.592-.735 2.474l-9.8 107.632c-.245 3.259-4.165 5.268-7.84 5.268-4.41 0-8.085-3.773-8.33-8.355l-1.96-147.348c0-6.002 3.185-10.829 7.595-17.003l36.506-51.354c3.264-4.536 8.988-4.819 13.965-4.582 5.635.539 10.29 3.087 13.475 7.669 6.954 9.725 9.022 13.569 11.27 23.349l5.145 22.541c1.064 4.617 6.348 6.557 10.045 4.043l28.176-18.228c1.96-1.397 5.88-3.332 7.84-1.397 1.225.858 1.715 2.181 1.715 3.504 0 .711 0 2.034-.98 3.087l-37.486 38.417c-1.469 1.396-3.184 1.323-4.654.955zm-14.7-134.411c11.025 0 20.091 8.992 20.091 20.091s-9.065 20.091-20.091 20.091-20.091-8.992-20.091-20.091 9.065-20.091 20.091-20.091zm92.612 35.6c8.085 0 14.7 6.59 14.7 14.7s-6.615 14.7-14.7 14.7-14.7-6.59-14.7-14.7 6.615-14.7 14.7-14.7zm-26.46 68.675-37.241 38.417c-4.41 4.508-11.025 6.174-17.396 4.508-6.125-1.519-9.31-5.905-11.76-9.531l-10.045-14.014-9.31 11.564-17.397 33.468-9.555 106.309c-.98 9.849-10.045 17.346-21.071 17.346-11.76 0-21.316-9.604-21.561-21.414l-1.96-147.347c-.245-10.829 5.635-18.939 10.045-24.917l36.751-51.354c3.675-5.121 9.31-8.453 16.171-9.604-14.092-22.654 2.513-50.913 28.176-50.913 18.376 0 33.321 14.97 33.321 33.297 0 16.293-11.76 29.842-27.196 32.757 8.265 11.848 9.405 16.406 11.516 25.726l3.185 13.304 20.091-13.133c6.615-4.214 13.23-5.366 18.866-3.43l9.8-9.237c-12.467-17.646.018-43.709 23.031-43.709 15.435 0 27.931 12.52 27.931 27.931 0 20.645-21.863 34.562-41.161 24.672l-10.045 9.408c2.992 6.737 2.275 14.473-3.186 19.896zm65.416 180.84c8.82-9.433 14.211-22.198 14.211-36.188 0-29.352-23.766-53.216-53.167-53.216s-53.412 23.864-53.412 53.216c0 13.99 5.635 26.755 14.456 36.188v-3.7c0-14.7 8.085-27.49 20.091-34.179-3.92-4.41-6.125-10.217-6.125-16.636 0-13.843 11.025-25.113 24.991-25.113 21.317 0 33.057 25.508 18.621 41.749 12.005 6.689 20.335 19.478 20.335 34.179v3.7zm-50.961-54.514c0 6.517 5.39 11.883 12.005 11.883s11.76-5.366 11.76-11.883c0-6.542-5.145-11.907-11.76-11.907s-12.005 5.365-12.005 11.907zm-13.72 64.902c16.015 8.938 35.353 8.984 51.451 0v-14.088c0-14.186-11.515-25.726-25.726-25.726-14.21 0-25.726 11.54-25.726 25.726v14.088zm32.34-112.654v-76.442c0-3.7-2.94-6.615-6.615-6.615s-6.615 2.916-6.615 6.615v76.442c-33.566 3.357-59.782 31.729-59.782 66.079 0 36.629 29.646 66.495 66.397 66.495 36.506 0 66.397-29.866 66.397-66.495 0-34.351-26.216-62.722-59.782-66.079zm178.366 49.516v-3.7c0-14.725-8.33-27.49-20.336-34.179 14.398-16.198 2.755-41.749-18.621-41.749-21.762 0-33.218 25.602-18.866 41.749-12.005 6.689-20.091 19.454-20.091 34.179v3.7c-8.82-9.531-14.211-22.198-14.211-36.212 0-29.327 23.766-53.191 53.167-53.191s53.167 23.864 53.167 53.191c.001 14.014-5.389 26.681-14.209 36.212zm-50.962-54.539c0 6.517 5.39 11.907 12.005 11.907s11.76-5.39 11.76-11.907c0-6.591-5.145-11.883-11.76-11.883-6.614 0-12.005 5.293-12.005 11.883zm-13.72 64.927c15.899 8.822 35.552 8.821 51.452 0v-14.088c0-14.186-11.515-25.726-25.726-25.726s-25.726 11.54-25.726 25.726zm25.726-113.022c36.506 0 66.397 29.793 66.397 66.421 0 36.653-29.891 66.421-66.397 66.421-36.751 0-66.397-29.768-66.397-66.421 0-15.926 5.635-30.479 14.945-41.921l-59.537-59.635c-2.695-2.548-2.695-6.689 0-9.335 2.45-2.548 6.615-2.548 9.31 0l59.537 59.537c11.516-9.407 26.216-15.067 42.142-15.067zm69.337-43.415c8.575-9.506 14.21-22.198 14.21-36.187 0-29.327-24.011-53.216-53.167-53.216-29.401 0-53.412 23.888-53.412 53.216 0 13.99 5.39 26.681 14.211 36.187v-3.7c0-14.7 8.33-27.465 20.335-34.154-14.376-16.173-2.865-41.75 18.866-41.75 21.344 0 33.042 25.525 18.621 41.75 12.005 6.689 20.336 19.453 20.336 34.154zm-50.962-54.514c0-6.517 5.39-11.883 12.005-11.883 6.37 0 11.76 5.366 11.76 11.883s-5.39 11.883-11.76 11.883c-6.615 0-12.005-5.366-12.005-11.883zm-13.965 64.902c16.322 8.824 35.349 8.838 51.697 0v-14.088c0-14.161-11.515-25.701-25.726-25.701-14.456 0-25.971 11.54-25.971 25.701zm25.971-112.997c-34.546 0-62.967 26.338-66.152 59.978h-54.146c-3.675 0-6.615 2.915-6.615 6.615 0 3.601 2.94 6.615 6.615 6.615h54.146c3.43 33.468 31.606 59.61 66.152 59.61 36.506 0 66.397-29.768 66.397-66.397 0-36.653-29.891-66.421-66.397-66.421z" fill="rgb(0,0,0)" fill-rule="evenodd"/></svg>