<svg id="Layer_1" viewBox="0 0 64 64" xmlns="http://www.w3.org/2000/svg" data-name="Layer 1"><path d="m55.795 11.741h-1.396v-2.505c0-3.42-2.782-6.202-6.202-6.202h-39.995c-3.42 0-6.202 2.782-6.202 6.202v36.827c0 1.188.342 2.296.924 3.24 0 0 .001.002.002.003 1.093 1.772 3.046 2.959 5.277 2.959h1.399v2.507c0 3.415 2.784 6.193 6.205 6.193h39.989c3.421 0 6.205-2.778 6.205-6.193v-36.826c0-3.422-2.784-6.205-6.205-6.205zm-51.795-2.505c0-2.317 1.885-4.202 4.202-4.202h39.994c2.317 0 4.202 1.885 4.202 4.202v23.016l-7.398-6.334c-1.25-1.067-2.904-1.578-4.536-1.385-1.635.188-3.132 1.055-4.107 2.379l-8.306 11.297c-.267.361-.657.592-1.099.648-.437.058-.869-.066-1.213-.346l-4.138-3.347c-2.499-2.003-6.206-1.644-8.263.806l-9.238 10.985c-.063-.289-.1-.586-.1-.893zm1.101 39.638 9.768-11.615c1.364-1.624 3.822-1.863 5.477-.535l4.134 3.343c.773.627 1.74.905 2.726.775.989-.126 1.861-.64 2.455-1.445l8.306-11.298c.656-.891 1.624-1.451 2.725-1.578 1.098-.126 2.168.2 3.008.918l8.698 7.447v11.178c0 2.317-1.885 4.202-4.202 4.202h-39.994c-1.233 0-2.332-.543-3.102-1.391zm54.899 5.898c0 2.312-1.886 4.193-4.205 4.193h-39.989c-2.319 0-4.205-1.881-4.205-4.193v-2.507h36.595c3.42 0 6.202-2.782 6.202-6.202v-32.322h1.396c2.319 0 4.205 1.887 4.205 4.205v36.826z"/><path d="m18.978 27.246c4.619 0 8.377-3.758 8.377-8.377s-3.758-8.377-8.377-8.377-8.377 3.758-8.377 8.377 3.758 8.377 8.377 8.377zm0-14.754c3.517 0 6.377 2.86 6.377 6.377s-2.861 6.377-6.377 6.377-6.377-2.86-6.377-6.377 2.861-6.377 6.377-6.377z"/></svg>